# xmcd
#
# Track frame offsets: 
#        150
#        24687
#        47742
#        68068
#        84433
#        110164
#        131295
#        151682
#        172028
#        190213
#
# Disc length: 2861 seconds
#
# Revision: 0
# Processed by: cddbd v1.5.2PL0 Copyright (c) Steve Scherf et al.
# Submitted via: ExactAudioCopy v1.0b3
#
DISCID=7e0b2b0a
DTITLE=Various Artist - Tinh ca Le Dinh 1
DYEAR=2006
DGENRE=
TTITLE0=Ha Vy - Bien dau
TTITLE1=Manh Quynh - Neu mai nay
TTITLE2=Trang Thanh Lan - Tinh yeu tra lai trang sao
TTITLE3=Thanh Tuyen - Thuong doi hoa
TTITLE4=Tuan Vu, My Huyen - Noi buon Chau Pha
TTITLE5=Hoang Lan - Bai hat nay cho em
TTITLE6=Kha Tu - Ga chieu
TTITLE7=Tuan Vu - Duong ve khuya
TTITLE8=Luu Hong - Ngang trai
TTITLE9=Ha Vy - Neu anh dung hen
EXTD=
EXTT0=
EXTT1=
EXTT2=
EXTT3=
EXTT4=
EXTT5=
EXTT6=
EXTT7=
EXTT8=
EXTT9=
PLAYORDER=
